<mxfile host="app.diagrams.net" modified="2024-02-06T06:26:55.058Z" agent="Mozilla/5.0 (X11; Linux x86_64) AppleWebKit/537.36 (KHTML, like Gecko) Chrome/116.0.0.0 Safari/537.36" etag="4BHBrKajalcCsHOYh8hQ" version="23.1.1" type="github">
  <diagram name="Page-1" id="FAghC-U2K6pKVH8kczmT">
    <mxGraphModel dx="1058" dy="623" grid="1" gridSize="10" guides="1" tooltips="1" connect="1" arrows="1" fold="1" page="1" pageScale="1" pageWidth="850" pageHeight="1100" math="0" shadow="0">
      <root>
        <mxCell id="0" />
        <mxCell id="1" parent="0" />
        <mxCell id="NTOSf_U4blxJJ7QQ_JFd-1" value="" style="rounded=0;whiteSpace=wrap;html=1;rotation=90;" vertex="1" parent="1">
          <mxGeometry x="160" y="260" width="520" height="280" as="geometry" />
        </mxCell>
        <mxCell id="NTOSf_U4blxJJ7QQ_JFd-2" value="pengunjung" style="shape=umlActor;verticalLabelPosition=bottom;verticalAlign=top;html=1;outlineConnect=0;" vertex="1" parent="1">
          <mxGeometry x="70" y="295" width="110" height="210" as="geometry" />
        </mxCell>
        <mxCell id="NTOSf_U4blxJJ7QQ_JFd-3" value="pustakawan" style="shape=umlActor;verticalLabelPosition=bottom;verticalAlign=top;html=1;outlineConnect=0;" vertex="1" parent="1">
          <mxGeometry x="650" y="295" width="110" height="210" as="geometry" />
        </mxCell>
        <mxCell id="NTOSf_U4blxJJ7QQ_JFd-4" value="form pengunjung" style="ellipse;whiteSpace=wrap;html=1;" vertex="1" parent="1">
          <mxGeometry x="360" y="215" width="120" height="80" as="geometry" />
        </mxCell>
        <mxCell id="NTOSf_U4blxJJ7QQ_JFd-5" value="pencarian buku" style="ellipse;whiteSpace=wrap;html=1;" vertex="1" parent="1">
          <mxGeometry x="360" y="320" width="120" height="80" as="geometry" />
        </mxCell>
        <mxCell id="NTOSf_U4blxJJ7QQ_JFd-6" value="detail buku" style="ellipse;whiteSpace=wrap;html=1;" vertex="1" parent="1">
          <mxGeometry x="360" y="425" width="120" height="80" as="geometry" />
        </mxCell>
        <mxCell id="NTOSf_U4blxJJ7QQ_JFd-7" value="laporan statistik" style="ellipse;whiteSpace=wrap;html=1;" vertex="1" parent="1">
          <mxGeometry x="365" y="530" width="120" height="80" as="geometry" />
        </mxCell>
        <mxCell id="NTOSf_U4blxJJ7QQ_JFd-8" value="perpus digital" style="text;html=1;strokeColor=none;fillColor=none;align=center;verticalAlign=middle;whiteSpace=wrap;rounded=0;" vertex="1" parent="1">
          <mxGeometry x="380" y="150" width="80" height="30" as="geometry" />
        </mxCell>
        <mxCell id="NTOSf_U4blxJJ7QQ_JFd-10" value="" style="endArrow=none;html=1;rounded=0;" edge="1" parent="1" source="NTOSf_U4blxJJ7QQ_JFd-2" target="NTOSf_U4blxJJ7QQ_JFd-4">
          <mxGeometry width="50" height="50" relative="1" as="geometry">
            <mxPoint x="190" y="340" as="sourcePoint" />
            <mxPoint x="240" y="290" as="targetPoint" />
            <Array as="points">
              <mxPoint x="230" y="255" />
            </Array>
          </mxGeometry>
        </mxCell>
        <mxCell id="NTOSf_U4blxJJ7QQ_JFd-11" value="" style="endArrow=none;html=1;rounded=0;entryX=0;entryY=0.5;entryDx=0;entryDy=0;" edge="1" parent="1" source="NTOSf_U4blxJJ7QQ_JFd-2" target="NTOSf_U4blxJJ7QQ_JFd-5">
          <mxGeometry width="50" height="50" relative="1" as="geometry">
            <mxPoint x="190" y="440" as="sourcePoint" />
            <mxPoint x="240" y="390" as="targetPoint" />
          </mxGeometry>
        </mxCell>
        <mxCell id="NTOSf_U4blxJJ7QQ_JFd-12" value="" style="endArrow=none;html=1;rounded=0;entryX=0;entryY=0.5;entryDx=0;entryDy=0;" edge="1" parent="1" source="NTOSf_U4blxJJ7QQ_JFd-2" target="NTOSf_U4blxJJ7QQ_JFd-6">
          <mxGeometry width="50" height="50" relative="1" as="geometry">
            <mxPoint x="190" y="460" as="sourcePoint" />
            <mxPoint x="240" y="410" as="targetPoint" />
          </mxGeometry>
        </mxCell>
        <mxCell id="NTOSf_U4blxJJ7QQ_JFd-13" value="" style="endArrow=none;html=1;rounded=0;exitX=1;exitY=0.5;exitDx=0;exitDy=0;" edge="1" parent="1" source="NTOSf_U4blxJJ7QQ_JFd-4" target="NTOSf_U4blxJJ7QQ_JFd-3">
          <mxGeometry width="50" height="50" relative="1" as="geometry">
            <mxPoint x="400" y="470" as="sourcePoint" />
            <mxPoint x="600" y="310" as="targetPoint" />
            <Array as="points">
              <mxPoint x="610" y="260" />
            </Array>
          </mxGeometry>
        </mxCell>
        <mxCell id="NTOSf_U4blxJJ7QQ_JFd-14" value="" style="endArrow=none;html=1;rounded=0;exitX=1;exitY=0.5;exitDx=0;exitDy=0;" edge="1" parent="1" source="NTOSf_U4blxJJ7QQ_JFd-5" target="NTOSf_U4blxJJ7QQ_JFd-3">
          <mxGeometry width="50" height="50" relative="1" as="geometry">
            <mxPoint x="590" y="400" as="sourcePoint" />
            <mxPoint x="640" y="350" as="targetPoint" />
          </mxGeometry>
        </mxCell>
        <mxCell id="NTOSf_U4blxJJ7QQ_JFd-15" value="" style="endArrow=none;html=1;rounded=0;exitX=1;exitY=0.5;exitDx=0;exitDy=0;" edge="1" parent="1" source="NTOSf_U4blxJJ7QQ_JFd-6" target="NTOSf_U4blxJJ7QQ_JFd-3">
          <mxGeometry width="50" height="50" relative="1" as="geometry">
            <mxPoint x="580" y="470" as="sourcePoint" />
            <mxPoint x="630" y="420" as="targetPoint" />
          </mxGeometry>
        </mxCell>
        <mxCell id="NTOSf_U4blxJJ7QQ_JFd-16" value="" style="endArrow=none;html=1;rounded=0;exitX=1;exitY=0.5;exitDx=0;exitDy=0;" edge="1" parent="1" source="NTOSf_U4blxJJ7QQ_JFd-7" target="NTOSf_U4blxJJ7QQ_JFd-3">
          <mxGeometry width="50" height="50" relative="1" as="geometry">
            <mxPoint x="610" y="590" as="sourcePoint" />
            <mxPoint x="660" y="540" as="targetPoint" />
            <Array as="points" />
          </mxGeometry>
        </mxCell>
      </root>
    </mxGraphModel>
  </diagram>
</mxfile>
